<?xml version="1.0" encoding="utf-8"?>
<!-- Generator: Adobe Illustrator 21.0.0, SVG Export Plug-In . SVG Version: 6.00 Build 0)  -->
<svg version="1.1" id="Layer_1" xmlns="http://www.w3.org/2000/svg" xmlns:xlink="http://www.w3.org/1999/xlink" x="0px" y="0px"
	 viewBox="0 0 128.2 38" style="enable-background:new 0 0 128.2 38;" xml:space="preserve">
<style type="text/css">
	.st0{clip-path:url(#SVGID_2_);fill:#CC150E;}
	.st1{clip-path:url(#SVGID_4_);fill:#FFFFFF;}
	.st2{clip-path:url(#SVGID_6_);fill:#FFFFFF;}
	.st3{clip-path:url(#SVGID_8_);fill:#FFFFFF;}
	.st4{clip-path:url(#SVGID_10_);fill:#FFFFFF;}
	.st5{clip-path:url(#SVGID_12_);fill:#FFFFFF;}
	.st6{clip-path:url(#SVGID_14_);fill:#FFFFFF;}
	.st7{clip-path:url(#SVGID_16_);fill:#FFFFFF;}
	.st8{clip-path:url(#SVGID_18_);fill:#FFFFFF;}
	.st9{clip-path:url(#SVGID_20_);fill:#FFFFFF;}
</style>
<g>
	<g>
		<defs>
			<rect id="SVGID_1_" width="128.2" height="38"/>
		</defs>
		<clipPath id="SVGID_2_">
			<use xlink:href="#SVGID_1_"  style="overflow:visible;"/>
		</clipPath>
		<path class="st0" d="M0,0v28.4C0,33.7,4.3,38,9.6,38h109.1c5.3,0,9.6-4.3,9.6-9.6V0H0z"/>
	</g>
</g>
<g>
	<g>
		<defs>
			<rect id="SVGID_3_" width="128.2" height="38"/>
		</defs>
		<clipPath id="SVGID_4_">
			<use xlink:href="#SVGID_3_"  style="overflow:visible;"/>
		</clipPath>
		<path class="st1" d="M26.9,12.8c1.2,1.4,2.3,3.5,2.3,6.2c0,4.3-2.6,6.9-5.4,6.9c-1.4,0-2.7-0.5-3.5-1.1c4.4-1.9,7-5.7,7-9
			C27.3,14.5,27.1,13.5,26.9,12.8 M13.5,11.8c0.7-0.2,1.7-0.5,2.9-0.5c3.3,0,7.2,2.6,9,7c0.6-0.8,1.1-2.1,1.1-3.5
			c0-2.8-2.6-5.4-6.9-5.4C17,9.5,14.9,10.6,13.5,11.8 M12.4,25.2c-0.2-0.7-0.5-1.7-0.5-2.9c0-3.3,2.6-7.2,7-9
			c-0.8-0.6-2.1-1.1-3.5-1.1c-2.8,0-5.4,2.6-5.4,6.9C10.1,21.7,11.2,23.8,12.4,25.2 M25.8,26.2c-0.7,0.2-1.7,0.5-2.9,0.5
			c-3.3,0-7.2-2.6-9.1-7c-0.6,0.8-1.1,2.1-1.1,3.5c0,2.8,2.6,5.4,6.9,5.4C22.3,28.5,24.4,27.5,25.8,26.2"/>
	</g>
	<g>
		<defs>
			<rect id="SVGID_5_" width="128.2" height="38"/>
		</defs>
		<clipPath id="SVGID_6_">
			<use xlink:href="#SVGID_5_"  style="overflow:visible;"/>
		</clipPath>
		<polygon class="st2" points="116.6,26.2 116.4,26.2 116.4,24.8 115.9,24.8 115.9,24.6 117.1,24.6 117.1,24.8 116.6,24.8 		"/>
	</g>
	<g>
		<defs>
			<rect id="SVGID_7_" width="128.2" height="38"/>
		</defs>
		<clipPath id="SVGID_8_">
			<use xlink:href="#SVGID_7_"  style="overflow:visible;"/>
		</clipPath>
		<polygon class="st3" points="118.2,25.8 118.2,25.8 118.6,24.6 119,24.6 119,26.2 118.8,26.2 118.8,24.8 118.8,24.8 118.2,26.2 
			118.1,26.2 117.6,24.8 117.6,24.8 117.6,26.2 117.4,26.2 117.4,24.6 117.7,24.6 		"/>
	</g>
	<g>
		<defs>
			<rect id="SVGID_9_" width="128.2" height="38"/>
		</defs>
		<clipPath id="SVGID_10_">
			<use xlink:href="#SVGID_9_"  style="overflow:visible;"/>
		</clipPath>
		<path class="st4" d="M47.8,19c0-4.3,2.5-7.3,6.7-7.3s6.7,3,6.7,7.3c0,4.4-2.6,7.3-6.7,7.3S47.8,23.4,47.8,19 M58.4,19
			c0-3.2-1.3-5.1-4-5.1c-2.6,0-4,1.9-4,5.1s1.4,5.1,4,5.1C57.1,24.1,58.4,22.3,58.4,19"/>
	</g>
	<g>
		<defs>
			<rect id="SVGID_11_" width="128.2" height="38"/>
		</defs>
		<clipPath id="SVGID_12_">
			<use xlink:href="#SVGID_11_"  style="overflow:visible;"/>
		</clipPath>
		<polygon class="st5" points="79.7,11.9 79.7,26.2 88.5,26.2 88.5,24 82.3,24 82.3,19.9 87.8,19.9 87.8,17.8 82.3,17.8 82.3,14 
			87.8,14 88.5,11.9 		"/>
	</g>
	<g>
		<defs>
			<rect id="SVGID_13_" width="128.2" height="38"/>
		</defs>
		<clipPath id="SVGID_14_">
			<use xlink:href="#SVGID_13_"  style="overflow:visible;"/>
		</clipPath>
		<path class="st6" d="M71.5,18.4l-0.7,2.1H73v3.2c-0.6,0.3-1.1,0.4-2.1,0.4c-3,0-4.5-2-4.5-5.1c0-3,1.5-5.2,4.6-5.2
			c1.1,0,2.3,0.4,3.2,1l0.7-2.2c-1.1-0.6-2.6-1-4.1-1c-4.4,0-7.1,3.2-7.1,7.5c0,4.1,2.5,7.1,7.1,7.1c2,0,3.6-0.5,4.8-1.2v-6.8h-4.1
			V18.4z"/>
	</g>
	<g>
		<defs>
			<rect id="SVGID_15_" width="128.2" height="38"/>
		</defs>
		<clipPath id="SVGID_16_">
			<use xlink:href="#SVGID_15_"  style="overflow:visible;"/>
		</clipPath>
		<path class="st7" d="M35.8,11.9h4.3c4,0,5.2,2.5,5.2,4.4c0,2.7-2,3.7-2.6,3.9v0.1c0.3,0.1,0.9,0.4,1.7,1.8l2.4,4.2h-2.9l-2-3.6
			c-0.8-1.5-1.2-2-2.5-2h-0.9v5.6H36V11.9 M40,18.5c2.2,0,2.6-1.4,2.6-2.3c0-0.8-0.4-2.2-2.6-2.2h-1.7v4.5H40z"/>
	</g>
	<g>
		<defs>
			<rect id="SVGID_17_" width="128.2" height="38"/>
		</defs>
		<clipPath id="SVGID_18_">
			<use xlink:href="#SVGID_17_"  style="overflow:visible;"/>
		</clipPath>
		<path class="st8" d="M92.2,11.9h4.3c4,0,5.2,2.5,5.2,4.4c0,2.7-2,3.7-2.6,3.9v0.1c0.3,0.1,0.9,0.4,1.7,1.8l2.4,4.2h-2.9l-2-3.6
			c-0.8-1.5-1.2-2-2.5-2h-0.9v5.6h-2.5V11.9 M96.5,18.5c2.2,0,2.6-1.4,2.6-2.3c0-0.8-0.4-2.2-2.6-2.2h-1.7v4.5H96.5z"/>
	</g>
	<g>
		<defs>
			<rect id="SVGID_19_" width="128.2" height="38"/>
		</defs>
		<clipPath id="SVGID_20_">
			<use xlink:href="#SVGID_19_"  style="overflow:visible;"/>
		</clipPath>
		<path class="st9" d="M107.7,15.5c0-1.1,1.1-1.6,2.3-1.6c1.6,0,2.8,0.5,3.1,0.6v-2.4c-0.2-0.1-1.3-0.4-3.3-0.4
			c-3.1,0-4.8,1.8-4.8,4c0,2.1,1.7,3.2,3.1,3.9c0.3,0.2,0.7,0.4,1,0.5c1.2,0.6,2,1.1,2,2.2c0,1.2-1.2,1.8-2.4,1.8
			c-2,0-3.3-0.7-3.5-0.9l-0.7,2.1c0.2,0.1,1.8,1,4.2,1c2.9,0,5.1-1.7,5.1-4.3c0-1.8-1.2-2.9-3.2-4c-0.4-0.2-0.6-0.3-1-0.5
			C108.6,17,107.7,16.5,107.7,15.5"/>
	</g>
</g>
</svg>
